<?xml version="1.0" encoding="UTF-8"?>
<svg xmlns="http://www.w3.org/2000/svg"
     viewBox="0.0 0.0 1024.0 1024.0"
     width="100%" height="100%"
     preserveAspectRatio="xMidYMid meet">
  <!-- Adopted reference viewBox for consistent scaling across logos -->
  <g transform="translate(0.000000 330.666667) scale(0.96969697)">
<path d="M 515.00,216.00 L 506.00,225.00 L 506.00,226.00 L 496.00,236.00 L 496.00,237.00 L 486.00,247.00 L 486.00,248.00 L 476.00,258.00 L 476.00,259.00 L 466.00,269.00 L 466.00,270.00 L 456.00,280.00 L 456.00,282.00 L 516.00,282.00 L 517.00,281.00 L 517.00,216.00 Z M 367.00,216.00 L 367.00,282.00 L 427.00,282.00 L 427.00,280.00 L 419.00,272.00 L 419.00,271.00 L 409.00,261.00 L 409.00,260.00 L 398.00,249.00 L 398.00,248.00 L 389.00,239.00 L 389.00,238.00 L 379.00,228.00 L 379.00,227.00 L 369.00,217.00 L 369.00,216.00 Z M 878.00,123.00 L 878.00,125.00 L 880.00,125.00 L 881.00,126.00 L 882.00,126.00 L 883.00,127.00 L 884.00,127.00 L 886.00,129.00 L 886.00,130.00 L 888.00,132.00 L 888.00,134.00 L 889.00,135.00 L 889.00,139.00 L 890.00,140.00 L 890.00,263.00 L 889.00,264.00 L 889.00,269.00 L 888.00,270.00 L 888.00,272.00 L 887.00,273.00 L 887.00,274.00 L 883.00,278.00 L 882.00,278.00 L 881.00,279.00 L 879.00,279.00 L 878.00,280.00 L 875.00,280.00 L 875.00,282.00 L 934.00,282.00 L 934.00,280.00 L 931.00,280.00 L 930.00,279.00 L 929.00,279.00 L 928.00,278.00 L 927.00,278.00 L 926.00,277.00 L 925.00,277.00 L 923.00,275.00 L 923.00,274.00 L 921.00,272.00 L 921.00,271.00 L 920.00,270.00 L 920.00,266.00 L 919.00,265.00 L 919.00,204.00 L 920.00,203.00 L 938.00,203.00 L 939.00,204.00 L 941.00,204.00 L 942.00,205.00 L 944.00,205.00 L 946.00,207.00 L 947.00,207.00 L 951.00,211.00 L 951.00,212.00 L 953.00,214.00 L 953.00,215.00 L 954.00,216.00 L 954.00,217.00 L 955.00,218.00 L 955.00,219.00 L 956.00,220.00 L 956.00,221.00 L 957.00,222.00 L 957.00,223.00 L 958.00,224.00 L 958.00,225.00 L 959.00,226.00 L 959.00,228.00 L 960.00,229.00 L 960.00,230.00 L 961.00,231.00 L 961.00,233.00 L 962.00,234.00 L 962.00,235.00 L 963.00,236.00 L 963.00,238.00 L 964.00,239.00 L 964.00,241.00 L 965.00,242.00 L 965.00,243.00 L 966.00,244.00 L 966.00,246.00 L 967.00,247.00 L 967.00,248.00 L 968.00,249.00 L 968.00,250.00 L 969.00,251.00 L 969.00,253.00 L 970.00,254.00 L 970.00,255.00 L 971.00,256.00 L 971.00,258.00 L 972.00,259.00 L 972.00,261.00 L 973.00,262.00 L 973.00,263.00 L 974.00,264.00 L 974.00,266.00 L 975.00,267.00 L 975.00,268.00 L 976.00,269.00 L 976.00,270.00 L 977.00,271.00 L 977.00,273.00 L 978.00,274.00 L 978.00,275.00 L 980.00,277.00 L 980.00,278.00 L 981.00,279.00 L 981.00,280.00 L 983.00,282.00 L 1024.00,282.00 L 1024.00,280.00 L 1021.00,280.00 L 1020.00,279.00 L 1019.00,279.00 L 1018.00,278.00 L 1017.00,278.00 L 1014.00,275.00 L 1013.00,275.00 L 1011.00,273.00 L 1011.00,272.00 L 1008.00,269.00 L 1008.00,268.00 L 1006.00,266.00 L 1006.00,265.00 L 1005.00,264.00 L 1005.00,263.00 L 1004.00,262.00 L 1004.00,260.00 L 1003.00,259.00 L 1003.00,258.00 L 1002.00,257.00 L 1002.00,256.00 L 1001.00,255.00 L 1001.00,253.00 L 1000.00,252.00 L 1000.00,251.00 L 999.00,250.00 L 999.00,248.00 L 998.00,247.00 L 998.00,246.00 L 997.00,245.00 L 997.00,243.00 L 996.00,242.00 L 996.00,241.00 L 995.00,240.00 L 995.00,238.00 L 994.00,237.00 L 994.00,236.00 L 993.00,235.00 L 993.00,233.00 L 992.00,232.00 L 992.00,231.00 L 991.00,230.00 L 991.00,228.00 L 990.00,227.00 L 990.00,226.00 L 989.00,225.00 L 989.00,224.00 L 988.00,223.00 L 988.00,222.00 L 986.00,220.00 L 986.00,219.00 L 978.00,211.00 L 977.00,211.00 L 975.00,209.00 L 974.00,209.00 L 973.00,208.00 L 972.00,208.00 L 971.00,207.00 L 970.00,207.00 L 969.00,206.00 L 968.00,206.00 L 967.00,205.00 L 965.00,205.00 L 964.00,204.00 L 962.00,204.00 L 961.00,203.00 L 961.00,199.00 L 962.00,198.00 L 964.00,198.00 L 965.00,197.00 L 967.00,197.00 L 968.00,196.00 L 970.00,196.00 L 971.00,195.00 L 973.00,195.00 L 974.00,194.00 L 975.00,194.00 L 976.00,193.00 L 977.00,193.00 L 979.00,191.00 L 980.00,191.00 L 982.00,189.00 L 983.00,189.00 L 991.00,181.00 L 991.00,180.00 L 993.00,178.00 L 993.00,177.00 L 994.00,176.00 L 994.00,175.00 L 995.00,174.00 L 995.00,172.00 L 996.00,171.00 L 996.00,169.00 L 997.00,168.00 L 997.00,153.00 L 996.00,152.00 L 996.00,149.00 L 995.00,148.00 L 995.00,146.00 L 994.00,145.00 L 994.00,144.00 L 993.00,143.00 L 993.00,142.00 L 991.00,140.00 L 991.00,139.00 L 986.00,134.00 L 985.00,134.00 L 983.00,132.00 L 982.00,132.00 L 980.00,130.00 L 979.00,130.00 L 978.00,129.00 L 976.00,129.00 L 975.00,128.00 L 974.00,128.00 L 973.00,127.00 L 971.00,127.00 L 970.00,126.00 L 967.00,126.00 L 966.00,125.00 L 962.00,125.00 L 961.00,124.00 L 956.00,124.00 L 955.00,123.00 Z M 919.00,128.00 L 920.00,127.00 L 942.00,127.00 L 943.00,128.00 L 946.00,128.00 L 947.00,129.00 L 949.00,129.00 L 950.00,130.00 L 951.00,130.00 L 953.00,132.00 L 954.00,132.00 L 960.00,138.00 L 960.00,139.00 L 961.00,140.00 L 961.00,141.00 L 962.00,142.00 L 962.00,143.00 L 963.00,144.00 L 963.00,147.00 L 964.00,148.00 L 964.00,152.00 L 965.00,153.00 L 965.00,170.00 L 964.00,171.00 L 964.00,175.00 L 963.00,176.00 L 963.00,179.00 L 962.00,180.00 L 962.00,181.00 L 961.00,182.00 L 961.00,183.00 L 960.00,184.00 L 960.00,185.00 L 959.00,186.00 L 959.00,187.00 L 952.00,194.00 L 951.00,194.00 L 950.00,195.00 L 949.00,195.00 L 948.00,196.00 L 947.00,196.00 L 946.00,197.00 L 944.00,197.00 L 943.00,198.00 L 940.00,198.00 L 939.00,199.00 L 920.00,199.00 L 919.00,198.00 Z M 746.00,123.00 L 746.00,125.00 L 747.00,125.00 L 748.00,126.00 L 749.00,126.00 L 750.00,127.00 L 751.00,127.00 L 754.00,130.00 L 754.00,131.00 L 755.00,132.00 L 755.00,133.00 L 756.00,134.00 L 756.00,138.00 L 757.00,139.00 L 757.00,265.00 L 756.00,266.00 L 756.00,270.00 L 755.00,271.00 L 755.00,272.00 L 754.00,273.00 L 754.00,274.00 L 750.00,278.00 L 749.00,278.00 L 748.00,279.00 L 747.00,279.00 L 746.00,280.00 L 742.00,280.00 L 742.00,282.00 L 855.00,282.00 L 856.00,281.00 L 856.00,275.00 L 857.00,274.00 L 857.00,265.00 L 858.00,264.00 L 858.00,254.00 L 859.00,253.00 L 859.00,244.00 L 860.00,243.00 L 860.00,233.00 L 861.00,232.00 L 861.00,229.00 L 859.00,229.00 L 859.00,232.00 L 858.00,233.00 L 858.00,235.00 L 857.00,236.00 L 857.00,238.00 L 856.00,239.00 L 856.00,241.00 L 855.00,242.00 L 855.00,244.00 L 854.00,245.00 L 854.00,246.00 L 853.00,247.00 L 853.00,249.00 L 852.00,250.00 L 852.00,251.00 L 851.00,252.00 L 851.00,253.00 L 850.00,254.00 L 850.00,255.00 L 848.00,257.00 L 848.00,258.00 L 846.00,260.00 L 846.00,261.00 L 837.00,270.00 L 836.00,270.00 L 834.00,272.00 L 833.00,272.00 L 832.00,273.00 L 831.00,273.00 L 830.00,274.00 L 828.00,274.00 L 827.00,275.00 L 825.00,275.00 L 824.00,276.00 L 821.00,276.00 L 820.00,277.00 L 812.00,277.00 L 811.00,278.00 L 788.00,278.00 L 786.00,276.00 L 786.00,203.00 L 787.00,202.00 L 806.00,202.00 L 807.00,203.00 L 811.00,203.00 L 812.00,204.00 L 814.00,204.00 L 815.00,205.00 L 816.00,205.00 L 818.00,207.00 L 819.00,207.00 L 826.00,214.00 L 826.00,215.00 L 828.00,217.00 L 828.00,218.00 L 829.00,219.00 L 829.00,220.00 L 830.00,221.00 L 830.00,223.00 L 831.00,224.00 L 831.00,226.00 L 832.00,227.00 L 832.00,230.00 L 834.00,230.00 L 834.00,172.00 L 832.00,172.00 L 832.00,174.00 L 831.00,175.00 L 831.00,177.00 L 830.00,178.00 L 830.00,180.00 L 829.00,181.00 L 829.00,182.00 L 827.00,184.00 L 827.00,185.00 L 825.00,187.00 L 825.00,188.00 L 821.00,192.00 L 820.00,192.00 L 818.00,194.00 L 817.00,194.00 L 816.00,195.00 L 815.00,195.00 L 814.00,196.00 L 812.00,196.00 L 811.00,197.00 L 808.00,197.00 L 807.00,198.00 L 787.00,198.00 L 786.00,197.00 L 786.00,128.00 L 787.00,127.00 L 817.00,127.00 L 818.00,128.00 L 822.00,128.00 L 823.00,129.00 L 825.00,129.00 L 826.00,130.00 L 827.00,130.00 L 828.00,131.00 L 829.00,131.00 L 830.00,132.00 L 831.00,132.00 L 832.00,133.00 L 833.00,133.00 L 837.00,137.00 L 838.00,137.00 L 841.00,140.00 L 841.00,141.00 L 844.00,144.00 L 844.00,145.00 L 846.00,147.00 L 846.00,148.00 L 848.00,150.00 L 848.00,151.00 L 849.00,152.00 L 849.00,153.00 L 850.00,154.00 L 850.00,156.00 L 851.00,157.00 L 851.00,158.00 L 852.00,159.00 L 852.00,161.00 L 853.00,162.00 L 853.00,164.00 L 854.00,165.00 L 854.00,167.00 L 855.00,168.00 L 855.00,170.00 L 857.00,170.00 L 857.00,165.00 L 856.00,164.00 L 856.00,153.00 L 855.00,152.00 L 855.00,141.00 L 854.00,140.00 L 854.00,129.00 L 853.00,128.00 L 853.00,123.00 Z M 675.00,123.00 L 675.00,125.00 L 676.00,125.00 L 677.00,126.00 L 678.00,126.00 L 679.00,127.00 L 680.00,127.00 L 683.00,130.00 L 683.00,131.00 L 684.00,132.00 L 684.00,133.00 L 685.00,134.00 L 685.00,137.00 L 686.00,138.00 L 686.00,265.00 L 685.00,266.00 L 685.00,270.00 L 684.00,271.00 L 684.00,272.00 L 683.00,273.00 L 683.00,274.00 L 679.00,278.00 L 678.00,278.00 L 677.00,279.00 L 676.00,279.00 L 675.00,280.00 L 671.00,280.00 L 671.00,282.00 L 730.00,282.00 L 730.00,280.00 L 727.00,280.00 L 726.00,279.00 L 725.00,279.00 L 724.00,278.00 L 723.00,278.00 L 718.00,273.00 L 718.00,272.00 L 717.00,271.00 L 717.00,270.00 L 716.00,269.00 L 716.00,265.00 L 715.00,264.00 L 715.00,139.00 L 716.00,138.00 L 716.00,135.00 L 717.00,134.00 L 717.00,132.00 L 723.00,126.00 L 724.00,126.00 L 725.00,125.00 L 727.00,125.00 L 727.00,123.00 Z M 548.00,123.00 L 548.00,125.00 L 547.00,126.00 L 547.00,135.00 L 546.00,136.00 L 546.00,145.00 L 545.00,146.00 L 545.00,155.00 L 544.00,156.00 L 544.00,164.00 L 543.00,165.00 L 543.00,174.00 L 542.00,175.00 L 542.00,178.00 L 544.00,178.00 L 544.00,175.00 L 545.00,174.00 L 545.00,172.00 L 546.00,171.00 L 546.00,169.00 L 547.00,168.00 L 547.00,166.00 L 548.00,165.00 L 548.00,163.00 L 549.00,162.00 L 549.00,161.00 L 550.00,160.00 L 550.00,158.00 L 551.00,157.00 L 551.00,156.00 L 552.00,155.00 L 552.00,154.00 L 553.00,153.00 L 553.00,152.00 L 554.00,151.00 L 554.00,150.00 L 556.00,148.00 L 556.00,147.00 L 560.00,143.00 L 560.00,142.00 L 564.00,138.00 L 565.00,138.00 L 568.00,135.00 L 569.00,135.00 L 570.00,134.00 L 571.00,134.00 L 573.00,132.00 L 575.00,132.00 L 576.00,131.00 L 577.00,131.00 L 578.00,130.00 L 580.00,130.00 L 581.00,129.00 L 584.00,129.00 L 585.00,128.00 L 591.00,128.00 L 592.00,127.00 L 623.00,127.00 L 624.00,128.00 L 624.00,132.00 L 622.00,134.00 L 622.00,135.00 L 621.00,136.00 L 621.00,137.00 L 619.00,139.00 L 619.00,140.00 L 618.00,141.00 L 618.00,142.00 L 616.00,144.00 L 616.00,145.00 L 615.00,146.00 L 615.00,147.00 L 613.00,149.00 L 613.00,150.00 L 612.00,151.00 L 612.00,152.00 L 610.00,154.00 L 610.00,155.00 L 609.00,156.00 L 609.00,157.00 L 607.00,159.00 L 607.00,160.00 L 606.00,161.00 L 606.00,162.00 L 605.00,163.00 L 605.00,164.00 L 603.00,166.00 L 603.00,167.00 L 602.00,168.00 L 602.00,169.00 L 600.00,171.00 L 600.00,172.00 L 599.00,173.00 L 599.00,174.00 L 597.00,176.00 L 597.00,177.00 L 596.00,178.00 L 596.00,179.00 L 594.00,181.00 L 594.00,182.00 L 593.00,183.00 L 593.00,184.00 L 591.00,186.00 L 591.00,187.00 L 590.00,188.00 L 590.00,189.00 L 588.00,191.00 L 588.00,192.00 L 587.00,193.00 L 587.00,194.00 L 585.00,196.00 L 585.00,197.00 L 584.00,198.00 L 584.00,199.00 L 582.00,201.00 L 582.00,202.00 L 581.00,203.00 L 581.00,204.00 L 580.00,205.00 L 580.00,206.00 L 578.00,208.00 L 578.00,209.00 L 577.00,210.00 L 577.00,211.00 L 575.00,213.00 L 575.00,214.00 L 574.00,215.00 L 574.00,216.00 L 572.00,218.00 L 572.00,219.00 L 571.00,220.00 L 571.00,221.00 L 569.00,223.00 L 569.00,224.00 L 568.00,225.00 L 568.00,226.00 L 566.00,228.00 L 566.00,229.00 L 565.00,230.00 L 565.00,231.00 L 564.00,232.00 L 564.00,233.00 L 562.00,235.00 L 562.00,236.00 L 561.00,237.00 L 561.00,238.00 L 559.00,240.00 L 559.00,241.00 L 558.00,242.00 L 558.00,243.00 L 556.00,245.00 L 556.00,246.00 L 555.00,247.00 L 555.00,248.00 L 553.00,250.00 L 553.00,251.00 L 552.00,252.00 L 552.00,253.00 L 550.00,255.00 L 550.00,256.00 L 549.00,257.00 L 549.00,258.00 L 547.00,260.00 L 547.00,261.00 L 546.00,262.00 L 546.00,263.00 L 545.00,264.00 L 545.00,265.00 L 543.00,267.00 L 543.00,268.00 L 542.00,269.00 L 542.00,270.00 L 540.00,272.00 L 540.00,273.00 L 539.00,274.00 L 539.00,275.00 L 537.00,277.00 L 537.00,278.00 L 536.00,279.00 L 536.00,282.00 L 654.00,282.00 L 654.00,280.00 L 655.00,279.00 L 655.00,271.00 L 656.00,270.00 L 656.00,262.00 L 657.00,261.00 L 657.00,253.00 L 658.00,252.00 L 658.00,243.00 L 659.00,242.00 L 659.00,233.00 L 660.00,232.00 L 660.00,228.00 L 658.00,228.00 L 658.00,230.00 L 657.00,231.00 L 657.00,233.00 L 656.00,234.00 L 656.00,236.00 L 655.00,237.00 L 655.00,238.00 L 654.00,239.00 L 654.00,241.00 L 653.00,242.00 L 653.00,243.00 L 652.00,244.00 L 652.00,245.00 L 651.00,246.00 L 651.00,247.00 L 650.00,248.00 L 650.00,249.00 L 649.00,250.00 L 649.00,251.00 L 647.00,253.00 L 647.00,254.00 L 644.00,257.00 L 644.00,258.00 L 637.00,265.00 L 636.00,265.00 L 633.00,268.00 L 632.00,268.00 L 631.00,269.00 L 630.00,269.00 L 628.00,271.00 L 627.00,271.00 L 626.00,272.00 L 624.00,272.00 L 623.00,273.00 L 622.00,273.00 L 621.00,274.00 L 619.00,274.00 L 618.00,275.00 L 615.00,275.00 L 614.00,276.00 L 610.00,276.00 L 609.00,277.00 L 574.00,277.00 L 573.00,276.00 L 573.00,272.00 L 574.00,271.00 L 574.00,270.00 L 576.00,268.00 L 576.00,267.00 L 577.00,266.00 L 577.00,265.00 L 579.00,263.00 L 579.00,262.00 L 580.00,261.00 L 580.00,260.00 L 581.00,259.00 L 581.00,258.00 L 583.00,256.00 L 583.00,255.00 L 584.00,254.00 L 584.00,253.00 L 586.00,251.00 L 586.00,250.00 L 587.00,249.00 L 587.00,248.00 L 589.00,246.00 L 589.00,245.00 L 590.00,244.00 L 590.00,243.00 L 591.00,242.00 L 591.00,241.00 L 593.00,239.00 L 593.00,238.00 L 594.00,237.00 L 594.00,236.00 L 596.00,234.00 L 596.00,233.00 L 597.00,232.00 L 597.00,231.00 L 599.00,229.00 L 599.00,228.00 L 600.00,227.00 L 600.00,226.00 L 602.00,224.00 L 602.00,223.00 L 603.00,222.00 L 603.00,221.00 L 605.00,219.00 L 605.00,218.00 L 606.00,217.00 L 606.00,216.00 L 607.00,215.00 L 607.00,214.00 L 609.00,212.00 L 609.00,211.00 L 610.00,210.00 L 610.00,209.00 L 612.00,207.00 L 612.00,206.00 L 613.00,205.00 L 613.00,204.00 L 615.00,202.00 L 615.00,201.00 L 616.00,200.00 L 616.00,199.00 L 617.00,198.00 L 617.00,197.00 L 619.00,195.00 L 619.00,194.00 L 620.00,193.00 L 620.00,192.00 L 622.00,190.00 L 622.00,189.00 L 623.00,188.00 L 623.00,187.00 L 624.00,186.00 L 624.00,185.00 L 626.00,183.00 L 626.00,182.00 L 627.00,181.00 L 627.00,180.00 L 629.00,178.00 L 629.00,177.00 L 630.00,176.00 L 630.00,175.00 L 632.00,173.00 L 632.00,172.00 L 633.00,171.00 L 633.00,170.00 L 634.00,169.00 L 634.00,168.00 L 636.00,166.00 L 636.00,165.00 L 637.00,164.00 L 637.00,163.00 L 639.00,161.00 L 639.00,160.00 L 640.00,159.00 L 640.00,158.00 L 642.00,156.00 L 642.00,155.00 L 643.00,154.00 L 643.00,153.00 L 645.00,151.00 L 645.00,150.00 L 646.00,149.00 L 646.00,148.00 L 648.00,146.00 L 648.00,145.00 L 649.00,144.00 L 649.00,143.00 L 650.00,142.00 L 650.00,141.00 L 652.00,139.00 L 652.00,138.00 L 653.00,137.00 L 653.00,136.00 L 655.00,134.00 L 655.00,133.00 L 656.00,132.00 L 656.00,131.00 L 658.00,129.00 L 658.00,128.00 L 659.00,127.00 L 659.00,126.00 L 660.00,125.00 L 660.00,123.00 Z M 457.00,123.00 L 457.00,125.00 L 465.00,133.00 L 465.00,134.00 L 475.00,144.00 L 475.00,145.00 L 484.00,154.00 L 484.00,155.00 L 494.00,165.00 L 494.00,166.00 L 504.00,176.00 L 504.00,177.00 L 514.00,187.00 L 514.00,188.00 L 515.00,189.00 L 517.00,189.00 L 517.00,123.00 Z M 367.00,123.00 L 367.00,188.00 L 369.00,188.00 L 370.00,187.00 L 370.00,186.00 L 380.00,176.00 L 380.00,175.00 L 390.00,165.00 L 390.00,164.00 L 401.00,153.00 L 401.00,152.00 L 411.00,142.00 L 411.00,141.00 L 421.00,131.00 L 421.00,130.00 L 426.00,125.00 L 426.00,123.00 Z M 203.00,123.00 L 203.00,125.00 L 205.00,125.00 L 206.00,126.00 L 207.00,126.00 L 208.00,127.00 L 209.00,127.00 L 211.00,129.00 L 211.00,130.00 L 213.00,132.00 L 213.00,133.00 L 214.00,134.00 L 214.00,138.00 L 215.00,139.00 L 215.00,264.00 L 214.00,265.00 L 214.00,269.00 L 213.00,270.00 L 213.00,272.00 L 212.00,273.00 L 212.00,274.00 L 208.00,278.00 L 207.00,278.00 L 206.00,279.00 L 204.00,279.00 L 203.00,280.00 L 200.00,280.00 L 200.00,282.00 L 258.00,282.00 L 258.00,280.00 L 256.00,280.00 L 255.00,279.00 L 254.00,279.00 L 253.00,278.00 L 252.00,278.00 L 251.00,277.00 L 250.00,277.00 L 248.00,275.00 L 248.00,274.00 L 246.00,272.00 L 246.00,270.00 L 245.00,269.00 L 245.00,267.00 L 244.00,266.00 L 244.00,204.00 L 245.00,203.00 L 263.00,203.00 L 264.00,204.00 L 266.00,204.00 L 267.00,205.00 L 269.00,205.00 L 271.00,207.00 L 272.00,207.00 L 276.00,211.00 L 276.00,212.00 L 278.00,214.00 L 278.00,215.00 L 279.00,216.00 L 279.00,217.00 L 280.00,218.00 L 280.00,219.00 L 281.00,220.00 L 281.00,221.00 L 282.00,222.00 L 282.00,223.00 L 283.00,224.00 L 283.00,225.00 L 284.00,226.00 L 284.00,228.00 L 285.00,229.00 L 285.00,230.00 L 286.00,231.00 L 286.00,233.00 L 287.00,234.00 L 287.00,235.00 L 288.00,236.00 L 288.00,238.00 L 289.00,239.00 L 289.00,240.00 L 290.00,241.00 L 290.00,243.00 L 291.00,244.00 L 291.00,245.00 L 292.00,246.00 L 292.00,248.00 L 293.00,249.00 L 293.00,251.00 L 294.00,252.00 L 294.00,253.00 L 295.00,254.00 L 295.00,256.00 L 296.00,257.00 L 296.00,258.00 L 297.00,259.00 L 297.00,261.00 L 298.00,262.00 L 298.00,263.00 L 299.00,264.00 L 299.00,266.00 L 300.00,267.00 L 300.00,268.00 L 301.00,269.00 L 301.00,270.00 L 302.00,271.00 L 302.00,273.00 L 303.00,274.00 L 303.00,275.00 L 304.00,276.00 L 304.00,277.00 L 306.00,279.00 L 306.00,280.00 L 308.00,282.00 L 349.00,282.00 L 349.00,280.00 L 346.00,280.00 L 345.00,279.00 L 344.00,279.00 L 343.00,278.00 L 342.00,278.00 L 339.00,275.00 L 338.00,275.00 L 336.00,273.00 L 336.00,272.00 L 333.00,269.00 L 333.00,268.00 L 331.00,266.00 L 331.00,265.00 L 330.00,264.00 L 330.00,263.00 L 329.00,262.00 L 329.00,260.00 L 328.00,259.00 L 328.00,258.00 L 327.00,257.00 L 327.00,255.00 L 326.00,254.00 L 326.00,253.00 L 325.00,252.00 L 325.00,251.00 L 324.00,250.00 L 324.00,248.00 L 323.00,247.00 L 323.00,246.00 L 322.00,245.00 L 322.00,243.00 L 321.00,242.00 L 321.00,241.00 L 320.00,240.00 L 320.00,238.00 L 319.00,237.00 L 319.00,236.00 L 318.00,235.00 L 318.00,233.00 L 317.00,232.00 L 317.00,231.00 L 316.00,230.00 L 316.00,228.00 L 315.00,227.00 L 315.00,226.00 L 314.00,225.00 L 314.00,224.00 L 312.00,222.00 L 312.00,221.00 L 310.00,219.00 L 310.00,218.00 L 303.00,211.00 L 302.00,211.00 L 300.00,209.00 L 299.00,209.00 L 298.00,208.00 L 297.00,208.00 L 296.00,207.00 L 295.00,207.00 L 294.00,206.00 L 293.00,206.00 L 292.00,205.00 L 290.00,205.00 L 289.00,204.00 L 287.00,204.00 L 286.00,203.00 L 286.00,199.00 L 287.00,198.00 L 289.00,198.00 L 290.00,197.00 L 292.00,197.00 L 293.00,196.00 L 295.00,196.00 L 296.00,195.00 L 298.00,195.00 L 299.00,194.00 L 300.00,194.00 L 301.00,193.00 L 302.00,193.00 L 304.00,191.00 L 305.00,191.00 L 307.00,189.00 L 308.00,189.00 L 316.00,181.00 L 316.00,180.00 L 318.00,178.00 L 318.00,177.00 L 319.00,176.00 L 319.00,175.00 L 320.00,174.00 L 320.00,172.00 L 321.00,171.00 L 321.00,168.00 L 322.00,167.00 L 322.00,154.00 L 321.00,153.00 L 321.00,149.00 L 320.00,148.00 L 320.00,146.00 L 319.00,145.00 L 319.00,144.00 L 318.00,143.00 L 318.00,142.00 L 316.00,140.00 L 316.00,139.00 L 311.00,134.00 L 310.00,134.00 L 308.00,132.00 L 307.00,132.00 L 305.00,130.00 L 304.00,130.00 L 303.00,129.00 L 301.00,129.00 L 300.00,128.00 L 299.00,128.00 L 298.00,127.00 L 296.00,127.00 L 295.00,126.00 L 292.00,126.00 L 291.00,125.00 L 288.00,125.00 L 287.00,124.00 L 281.00,124.00 L 280.00,123.00 Z M 244.00,128.00 L 245.00,127.00 L 267.00,127.00 L 268.00,128.00 L 271.00,128.00 L 272.00,129.00 L 274.00,129.00 L 275.00,130.00 L 276.00,130.00 L 278.00,132.00 L 279.00,132.00 L 285.00,138.00 L 285.00,139.00 L 286.00,140.00 L 286.00,141.00 L 287.00,142.00 L 287.00,143.00 L 288.00,144.00 L 288.00,147.00 L 289.00,148.00 L 289.00,152.00 L 290.00,153.00 L 290.00,170.00 L 289.00,171.00 L 289.00,175.00 L 288.00,176.00 L 288.00,179.00 L 287.00,180.00 L 287.00,181.00 L 286.00,182.00 L 286.00,183.00 L 285.00,184.00 L 285.00,185.00 L 284.00,186.00 L 284.00,187.00 L 277.00,194.00 L 276.00,194.00 L 275.00,195.00 L 274.00,195.00 L 273.00,196.00 L 272.00,196.00 L 271.00,197.00 L 269.00,197.00 L 268.00,198.00 L 265.00,198.00 L 264.00,199.00 L 245.00,199.00 L 244.00,198.00 Z M 128.00,118.00 L 127.00,119.00 L 121.00,119.00 L 120.00,120.00 L 116.00,120.00 L 115.00,121.00 L 112.00,121.00 L 111.00,122.00 L 109.00,122.00 L 108.00,123.00 L 107.00,123.00 L 106.00,124.00 L 104.00,124.00 L 103.00,125.00 L 102.00,125.00 L 101.00,126.00 L 100.00,126.00 L 99.00,127.00 L 98.00,127.00 L 97.00,128.00 L 96.00,128.00 L 94.00,130.00 L 93.00,130.00 L 91.00,132.00 L 90.00,132.00 L 86.00,136.00 L 85.00,136.00 L 79.00,142.00 L 79.00,143.00 L 75.00,147.00 L 75.00,148.00 L 73.00,150.00 L 73.00,151.00 L 71.00,153.00 L 71.00,154.00 L 70.00,155.00 L 70.00,156.00 L 68.00,158.00 L 68.00,160.00 L 67.00,161.00 L 67.00,162.00 L 66.00,163.00 L 66.00,164.00 L 65.00,165.00 L 65.00,167.00 L 64.00,168.00 L 64.00,169.00 L 63.00,170.00 L 63.00,173.00 L 62.00,174.00 L 62.00,176.00 L 61.00,177.00 L 61.00,180.00 L 60.00,181.00 L 60.00,186.00 L 59.00,187.00 L 59.00,195.00 L 58.00,196.00 L 58.00,213.00 L 59.00,214.00 L 59.00,222.00 L 60.00,223.00 L 60.00,228.00 L 61.00,229.00 L 61.00,232.00 L 62.00,233.00 L 62.00,235.00 L 63.00,236.00 L 63.00,238.00 L 64.00,239.00 L 64.00,241.00 L 65.00,242.00 L 65.00,243.00 L 66.00,244.00 L 66.00,246.00 L 67.00,247.00 L 67.00,248.00 L 68.00,249.00 L 68.00,250.00 L 69.00,251.00 L 69.00,252.00 L 70.00,253.00 L 70.00,254.00 L 72.00,256.00 L 72.00,257.00 L 75.00,260.00 L 75.00,261.00 L 80.00,266.00 L 80.00,267.00 L 81.00,268.00 L 82.00,268.00 L 87.00,273.00 L 88.00,273.00 L 90.00,275.00 L 91.00,275.00 L 93.00,277.00 L 94.00,277.00 L 95.00,278.00 L 96.00,278.00 L 97.00,279.00 L 98.00,279.00 L 99.00,280.00 L 100.00,280.00 L 101.00,281.00 L 102.00,281.00 L 103.00,282.00 L 105.00,282.00 L 106.00,283.00 L 108.00,283.00 L 109.00,284.00 L 112.00,284.00 L 113.00,285.00 L 119.00,285.00 L 120.00,286.00 L 139.00,286.00 L 140.00,285.00 L 144.00,285.00 L 145.00,284.00 L 148.00,284.00 L 149.00,283.00 L 151.00,283.00 L 152.00,282.00 L 154.00,282.00 L 155.00,281.00 L 156.00,281.00 L 157.00,280.00 L 158.00,280.00 L 159.00,279.00 L 160.00,279.00 L 161.00,278.00 L 162.00,278.00 L 164.00,276.00 L 165.00,276.00 L 175.00,266.00 L 175.00,265.00 L 177.00,263.00 L 177.00,262.00 L 179.00,260.00 L 179.00,259.00 L 180.00,258.00 L 180.00,257.00 L 181.00,256.00 L 181.00,255.00 L 182.00,254.00 L 182.00,253.00 L 183.00,252.00 L 183.00,251.00 L 184.00,250.00 L 184.00,248.00 L 185.00,247.00 L 185.00,246.00 L 186.00,245.00 L 186.00,242.00 L 187.00,241.00 L 187.00,239.00 L 188.00,238.00 L 188.00,236.00 L 186.00,236.00 L 186.00,238.00 L 185.00,239.00 L 185.00,240.00 L 184.00,241.00 L 184.00,242.00 L 183.00,243.00 L 183.00,244.00 L 181.00,246.00 L 181.00,247.00 L 174.00,254.00 L 173.00,254.00 L 171.00,256.00 L 170.00,256.00 L 169.00,257.00 L 168.00,257.00 L 167.00,258.00 L 166.00,258.00 L 165.00,259.00 L 163.00,259.00 L 162.00,260.00 L 159.00,260.00 L 158.00,261.00 L 153.00,261.00 L 152.00,262.00 L 139.00,262.00 L 138.00,261.00 L 133.00,261.00 L 132.00,260.00 L 128.00,260.00 L 127.00,259.00 L 125.00,259.00 L 124.00,258.00 L 123.00,258.00 L 122.00,257.00 L 120.00,257.00 L 119.00,256.00 L 118.00,256.00 L 116.00,254.00 L 115.00,254.00 L 114.00,253.00 L 113.00,253.00 L 111.00,251.00 L 110.00,251.00 L 106.00,247.00 L 105.00,247.00 L 101.00,243.00 L 101.00,242.00 L 96.00,237.00 L 96.00,236.00 L 94.00,234.00 L 94.00,233.00 L 93.00,232.00 L 93.00,231.00 L 91.00,229.00 L 91.00,228.00 L 90.00,227.00 L 90.00,226.00 L 89.00,225.00 L 89.00,224.00 L 88.00,223.00 L 88.00,221.00 L 87.00,220.00 L 87.00,219.00 L 86.00,218.00 L 86.00,216.00 L 85.00,215.00 L 85.00,212.00 L 84.00,211.00 L 84.00,208.00 L 83.00,207.00 L 83.00,202.00 L 82.00,201.00 L 82.00,193.00 L 81.00,192.00 L 81.00,180.00 L 82.00,179.00 L 82.00,171.00 L 83.00,170.00 L 83.00,167.00 L 84.00,166.00 L 84.00,163.00 L 85.00,162.00 L 85.00,160.00 L 86.00,159.00 L 86.00,157.00 L 87.00,156.00 L 87.00,155.00 L 88.00,154.00 L 88.00,153.00 L 89.00,152.00 L 89.00,151.00 L 91.00,149.00 L 91.00,148.00 L 94.00,145.00 L 94.00,144.00 L 99.00,139.00 L 100.00,139.00 L 103.00,136.00 L 104.00,136.00 L 106.00,134.00 L 107.00,134.00 L 108.00,133.00 L 109.00,133.00 L 110.00,132.00 L 112.00,132.00 L 113.00,131.00 L 115.00,131.00 L 116.00,130.00 L 119.00,130.00 L 120.00,129.00 L 140.00,129.00 L 141.00,130.00 L 144.00,130.00 L 145.00,131.00 L 147.00,131.00 L 148.00,132.00 L 150.00,132.00 L 151.00,133.00 L 152.00,133.00 L 153.00,134.00 L 154.00,134.00 L 156.00,136.00 L 157.00,136.00 L 159.00,138.00 L 160.00,138.00 L 165.00,143.00 L 165.00,144.00 L 168.00,147.00 L 168.00,148.00 L 169.00,149.00 L 169.00,150.00 L 170.00,151.00 L 170.00,152.00 L 171.00,153.00 L 171.00,154.00 L 172.00,155.00 L 172.00,156.00 L 173.00,157.00 L 173.00,159.00 L 174.00,160.00 L 174.00,162.00 L 175.00,163.00 L 175.00,166.00 L 176.00,167.00 L 176.00,172.00 L 177.00,173.00 L 177.00,181.00 L 179.00,181.00 L 179.00,176.00 L 180.00,175.00 L 180.00,169.00 L 181.00,168.00 L 181.00,163.00 L 182.00,162.00 L 182.00,156.00 L 183.00,155.00 L 183.00,150.00 L 184.00,149.00 L 184.00,144.00 L 185.00,143.00 L 185.00,138.00 L 186.00,137.00 L 186.00,128.00 L 185.00,128.00 L 184.00,127.00 L 183.00,127.00 L 182.00,126.00 L 180.00,126.00 L 179.00,125.00 L 177.00,125.00 L 176.00,124.00 L 174.00,124.00 L 173.00,123.00 L 170.00,123.00 L 169.00,122.00 L 166.00,122.00 L 165.00,121.00 L 161.00,121.00 L 160.00,120.00 L 155.00,120.00 L 154.00,119.00 L 146.00,119.00 L 145.00,118.00 Z" fill="#d66446" fill-rule="evenodd" />
  </g>
</svg>
