<svg xmlns="http://www.w3.org/2000/svg" viewBox="0 0 1024 1024" shape-rendering="geometricPrecision" text-rendering="geometricPrecision" preserveAspectRatio="xMidYMid meet">
  <rect width="100%" height="100%" fill="#810000"/>
  <path d="M 533.000 154.000 C 529.666 154.167 526.470 154.667 523.205 155.000 C 519.940 155.333 516.675 155.667 513.410 156.000 C 510.146 156.333 506.881 156.667 503.616 157.000 C 500.351 157.333 497.086 157.667 493.821 158.000 C 490.556 158.333 487.222 158.500 484.026 159.000 C 480.830 159.500 477.841 160.500 474.646 161.000 C 471.450 161.500 468.047 161.500 464.851 162.000 C 461.655 162.500 458.597 163.333 455.470 164.000 C 452.343 164.667 449.154 165.181 446.090 166.000 C 443.026 166.819 440.145 168.079 437.087 168.913 C 434.029 169.746 430.795 170.152 427.743 171.000 C 424.691 171.848 421.756 172.978 418.777 174.000 C 415.797 175.022 412.798 175.998 409.866 177.134 C 406.933 178.270 404.111 179.673 401.182 180.818 C 398.253 181.962 395.199 182.803 392.292 184.000 C 389.385 185.197 386.599 186.689 383.740 188.000 C 380.880 189.311 377.965 190.491 375.133 191.867 C 372.300 193.244 369.515 194.736 366.742 196.258 C 363.970 197.780 361.228 199.376 358.497 201.000 C 355.767 202.624 353.072 204.333 350.359 206.000 C 347.647 207.667 344.889 209.225 342.222 211.000 C 339.554 212.775 336.964 214.739 334.352 216.648 C 331.740 218.557 329.167 220.561 326.547 222.453 C 323.928 224.345 321.238 226.065 318.636 228.000 C 316.035 229.935 313.473 231.966 310.938 234.062 C 308.403 236.157 305.930 238.403 303.426 240.574 C 300.923 242.744 298.391 244.848 295.915 247.085 C 293.439 249.323 291.025 251.712 288.570 254.000 C 286.115 256.288 283.431 258.497 281.184 260.816 C 278.937 263.135 277.188 265.478 275.087 267.913 C 272.985 270.348 270.745 272.921 268.575 275.425 C 266.404 277.929 264.116 280.384 262.063 282.937 C 260.010 285.490 258.193 288.140 256.259 290.741 C 254.324 293.343 252.330 295.920 250.454 298.546 C 248.577 301.172 246.742 303.815 245.000 306.496 C 243.258 309.177 241.667 311.921 240.000 314.634 C 238.333 317.347 236.667 320.059 235.000 322.772 C 233.333 325.484 231.554 328.151 230.000 330.910 C 228.446 333.669 227.008 336.477 225.673 339.327 C 224.338 342.177 223.336 345.164 221.990 348.010 C 220.644 350.856 218.945 353.555 217.600 356.400 C 216.254 359.246 215.183 362.205 213.916 365.084 C 212.650 367.962 211.228 370.776 210.000 373.670 C 208.772 376.565 207.621 379.491 206.550 382.450 C 205.479 385.410 204.499 388.407 203.574 391.426 C 202.649 394.446 201.874 397.528 201.000 400.569 C 200.126 403.610 199.152 406.610 198.328 409.672 C 197.505 412.734 196.781 415.837 196.059 418.941 C 195.338 422.045 194.677 425.174 194.000 428.297 C 193.323 431.420 192.667 434.551 192.000 437.677 C 191.333 440.804 190.500 443.862 190.000 447.058 C 189.500 450.254 189.333 453.588 189.000 456.853 C 188.667 460.118 188.333 463.383 188.000 466.647 C 187.667 469.912 187.167 473.108 187.000 476.442 C 186.833 479.776 187.167 483.317 187.000 486.651 C 186.833 489.985 186.167 493.112 186.000 496.446 C 185.833 499.780 186.000 503.252 186.000 506.655 C 186.000 510.058 185.833 513.530 186.000 516.864 C 186.167 520.198 186.731 523.367 187.000 526.659 C 187.269 529.950 187.447 533.280 187.614 536.614 C 187.780 539.947 187.769 543.355 188.000 546.662 C 188.231 549.970 188.519 553.253 189.000 556.457 C 189.481 559.661 190.385 562.689 190.885 565.885 C 191.385 569.081 191.481 572.445 192.000 575.633 C 192.519 578.820 193.333 581.886 194.000 585.013 C 194.667 588.140 195.167 591.336 196.000 594.394 C 196.833 597.451 198.167 600.302 199.000 603.360 C 199.833 606.418 200.167 609.683 201.000 612.741 C 201.833 615.798 203.000 618.718 204.000 621.707 C 205.000 624.696 206.000 627.684 207.000 630.673 C 208.000 633.662 208.929 636.680 210.000 639.640 C 211.071 642.599 212.243 645.516 213.428 648.428 C 214.614 651.340 215.850 654.231 217.112 657.112 C 218.374 659.992 219.537 662.913 221.000 665.710 C 222.463 668.507 224.393 671.111 225.893 673.893 C 227.393 676.674 228.482 679.626 230.000 682.400 C 231.518 685.174 233.372 687.810 235.000 690.538 C 236.628 693.267 238.008 696.098 239.771 698.771 C 241.533 701.444 243.641 703.974 245.576 706.576 C 247.510 709.177 249.445 711.779 251.380 714.380 C 253.315 716.982 255.250 719.583 257.185 722.185 C 259.120 724.786 260.937 727.437 262.989 729.989 C 265.042 732.542 267.331 734.997 269.501 737.501 C 271.672 740.005 273.724 742.558 276.013 745.013 C 278.301 747.468 280.825 749.825 283.232 752.232 C 285.638 754.638 288.044 757.044 290.451 759.451 C 292.857 761.857 295.214 764.381 297.669 766.669 C 300.124 768.958 302.628 771.128 305.181 773.181 C 307.734 775.234 310.433 776.933 312.986 778.986 C 315.538 781.038 317.924 783.495 320.497 785.497 C 323.071 787.500 325.777 789.183 328.427 791.000 C 331.078 792.817 333.721 794.650 336.400 796.400 C 339.078 798.149 341.757 799.897 344.497 801.497 C 347.237 803.097 350.093 804.419 352.841 806.000 C 355.589 807.581 358.203 809.485 360.985 810.985 C 363.767 812.485 366.681 813.664 369.531 815.000 C 372.381 816.336 375.215 817.710 378.083 819.000 C 380.952 820.290 383.822 821.575 386.742 822.742 C 389.662 823.909 392.631 824.957 395.602 826.000 C 398.573 827.043 401.579 828.000 404.568 829.000 C 407.557 830.000 410.546 831.000 413.534 832.000 C 416.523 833.000 419.443 834.167 422.501 835.000 C 425.558 835.833 428.816 836.185 431.881 837.000 C 434.946 837.815 437.797 839.150 440.892 839.892 C 443.988 840.635 447.266 840.936 450.454 841.454 C 453.643 841.972 456.865 842.409 460.023 843.000 C 463.181 843.591 466.207 844.500 469.403 845.000 C 472.599 845.500 475.933 845.667 479.198 846.000 C 482.463 846.333 485.728 846.667 488.993 847.000 C 492.258 847.333 495.523 847.667 498.788 848.000 C 502.053 848.333 505.318 848.667 508.582 849.000 C 511.847 849.333 515.112 849.667 518.377 850.000 C 521.642 850.333 524.838 850.833 528.172 851.000 C 531.506 851.167 534.978 851.000 538.381 851.000 C 541.784 851.000 545.256 850.833 548.590 851.000 C 551.924 851.167 555.051 851.833 558.385 852.000 C 561.719 852.167 565.260 852.167 568.594 852.000 C 571.928 851.833 575.055 851.167 578.388 851.000 C 581.722 850.833 585.263 851.167 588.597 851.000 C 591.931 850.833 595.127 850.333 598.392 850.000 C 601.657 849.667 604.922 849.333 608.187 849.000 C 611.452 848.667 614.755 848.425 617.982 848.000 C 621.209 847.575 624.353 846.951 627.549 846.451 C 630.745 845.951 633.992 845.575 637.157 845.000 C 640.322 844.425 643.407 843.657 646.538 843.000 C 649.668 842.343 652.815 841.725 655.942 841.058 C 659.069 840.391 662.176 839.676 665.299 839.000 C 668.422 838.324 671.552 837.667 674.679 837.000 C 677.806 836.333 680.933 835.667 684.060 835.000 C 687.187 834.333 690.354 833.763 693.440 833.000 C 696.527 832.237 699.523 831.253 702.580 830.420 C 705.638 829.586 708.758 828.903 711.787 828.000 C 714.816 827.097 717.702 825.849 720.754 825.000 C 723.805 824.151 727.037 823.738 730.095 822.905 C 733.153 822.072 736.105 820.984 739.101 820.000 C 742.096 819.016 745.031 817.886 748.067 817.000 C 751.103 816.114 754.279 815.566 757.316 814.684 C 760.354 813.802 763.300 812.700 766.293 811.707 C 769.285 810.715 772.651 810.269 775.269 808.731 C 777.887 807.194 780.378 805.018 782.000 802.482 C 783.622 799.946 784.000 796.504 785.000 793.516 C 786.000 790.527 787.000 787.538 788.000 784.549 C 789.000 781.561 789.955 778.553 791.000 775.583 C 792.045 772.613 793.230 769.701 794.271 766.729 C 795.312 763.757 796.255 760.745 797.247 757.753 C 798.239 754.761 799.265 751.782 800.223 748.777 C 801.182 745.771 802.126 742.759 803.000 739.718 C 803.874 736.677 804.635 733.589 805.469 730.531 C 806.302 727.473 807.244 724.460 808.000 721.371 C 808.756 718.281 809.294 715.101 810.007 711.993 C 810.720 708.885 811.611 705.851 812.276 702.724 C 812.942 699.597 813.379 696.375 814.000 693.229 C 814.621 690.083 815.333 686.975 816.000 683.849 C 816.667 680.722 817.667 677.595 818.000 674.468 C 818.333 671.341 819.175 667.665 818.000 665.087 C 816.825 662.509 813.619 660.515 810.950 659.000 C 808.280 657.485 804.641 655.572 801.983 656.000 C 799.325 656.428 796.845 659.221 795.000 661.569 C 793.155 663.917 792.248 667.235 790.914 670.086 C 789.581 672.936 788.346 675.828 787.000 678.673 C 785.654 681.519 784.266 684.347 782.841 687.159 C 781.416 689.972 779.924 692.757 778.450 695.550 C 776.977 698.342 775.581 701.167 774.000 703.915 C 772.419 706.663 770.769 709.383 768.962 712.038 C 767.155 714.692 765.093 717.241 763.158 719.842 C 761.223 722.444 759.406 725.094 757.353 727.647 C 755.300 730.200 753.130 732.704 750.841 735.159 C 748.553 737.614 746.029 739.971 743.622 742.378 C 741.216 744.784 738.859 747.308 736.404 749.596 C 733.949 751.885 731.396 753.937 728.892 756.108 C 726.388 758.279 723.893 760.471 721.380 762.620 C 718.867 764.768 716.367 766.947 713.814 769.000 C 711.261 771.053 708.707 773.103 706.064 774.936 C 703.420 776.769 700.700 778.419 697.952 780.000 C 695.204 781.581 692.419 783.073 689.576 784.424 C 686.733 785.775 683.738 786.762 680.893 788.107 C 678.047 789.453 675.348 791.152 672.502 792.498 C 669.657 793.843 666.713 794.953 663.819 796.181 C 660.924 797.409 658.128 798.872 655.136 799.864 C 652.144 800.856 648.915 801.278 645.866 802.134 C 642.818 802.989 639.912 804.189 636.845 805.000 C 633.778 805.811 630.591 806.333 627.464 807.000 C 624.337 807.667 621.280 808.500 618.084 809.000 C 614.888 809.500 611.554 809.667 608.289 810.000 C 605.024 810.333 601.759 810.667 598.494 811.000 C 595.229 811.333 591.964 812.000 588.699 812.000 C 585.435 812.000 582.239 811.167 578.905 811.000 C 575.571 810.833 572.030 811.167 568.696 811.000 C 565.362 810.833 562.166 810.333 558.901 810.000 C 555.636 809.667 552.302 809.500 549.106 809.000 C 545.910 808.500 542.869 807.626 539.726 807.000 C 536.582 806.374 533.371 805.911 530.244 805.244 C 527.117 804.577 524.054 803.756 520.964 803.000 C 517.875 802.244 514.696 801.702 511.706 800.706 C 508.715 799.710 505.966 798.132 503.022 797.022 C 500.079 795.913 497.034 795.050 494.046 794.046 C 491.059 793.043 488.042 792.110 485.099 791.000 C 482.156 789.890 479.238 788.720 476.387 787.387 C 473.536 786.053 470.792 784.463 467.995 783.000 C 465.198 781.537 462.354 780.188 459.606 778.606 C 456.858 777.024 454.208 775.208 451.508 773.508 C 448.809 771.809 446.061 770.228 443.411 768.411 C 440.761 766.594 438.159 764.659 435.606 762.606 C 433.054 760.554 430.598 758.265 428.095 756.095 C 425.591 753.924 423.087 751.753 420.583 749.583 C 418.079 747.412 415.526 745.360 413.071 743.071 C 410.616 740.783 408.141 738.307 405.852 735.852 C 403.564 733.397 401.511 730.844 399.341 728.341 C 397.170 725.837 394.999 723.333 392.829 720.829 C 390.658 718.325 388.370 715.870 386.317 713.317 C 384.264 710.764 382.329 708.163 380.512 705.512 C 378.695 702.862 377.114 700.114 375.415 697.415 C 373.716 694.716 371.899 692.065 370.317 689.317 C 368.736 686.569 367.480 683.687 365.927 680.927 C 364.374 678.167 362.581 675.507 361.000 672.759 C 359.419 670.011 357.813 667.273 356.439 664.439 C 355.065 661.605 353.996 658.645 352.756 655.756 C 351.516 652.866 350.228 649.997 349.000 647.102 C 347.772 644.208 346.487 641.337 345.389 638.389 C 344.291 635.441 343.405 632.405 342.413 629.413 C 341.421 626.421 340.339 623.466 339.437 620.437 C 338.535 617.407 337.756 614.327 337.000 611.237 C 336.244 608.147 335.627 605.000 334.899 601.899 C 334.170 598.797 333.279 595.763 332.629 592.629 C 331.980 589.496 331.605 586.248 331.000 583.095 C 330.395 579.943 329.509 576.907 329.000 573.715 C 328.491 570.523 328.444 567.139 327.944 563.944 C 327.444 560.748 326.491 557.739 326.000 554.540 C 325.509 551.340 325.167 548.079 325.000 544.745 C 324.833 541.411 325.167 537.870 325.000 534.536 C 324.833 531.202 324.167 528.075 324.000 524.741 C 323.833 521.407 324.000 517.935 324.000 514.532 C 324.000 511.129 324.000 507.726 324.000 504.323 C 324.000 500.920 324.000 497.517 324.000 494.114 C 324.000 490.711 324.000 487.308 324.000 483.905 C 324.000 480.502 323.833 477.030 324.000 473.696 C 324.167 470.362 324.679 467.172 325.000 463.901 C 325.321 460.631 325.628 457.356 325.925 454.075 C 326.221 450.795 326.434 447.480 326.779 444.221 C 327.125 440.961 327.630 437.767 328.000 434.517 C 328.370 431.267 328.500 427.918 329.000 424.722 C 329.500 421.526 330.447 418.516 331.000 415.342 C 331.553 412.168 331.722 408.835 332.320 405.680 C 332.919 402.524 333.809 399.491 334.589 396.411 C 335.369 393.331 336.126 390.241 337.000 387.200 C 337.874 384.159 338.984 381.216 339.835 378.165 C 340.685 375.115 341.112 371.888 342.104 368.896 C 343.096 365.904 344.677 363.156 345.787 360.213 C 346.897 357.270 347.728 354.211 348.763 351.237 C 349.799 348.263 350.890 345.312 352.000 342.368 C 353.110 339.425 354.121 336.441 355.423 333.577 C 356.725 330.714 358.384 327.998 359.813 325.187 C 361.243 322.376 362.537 319.509 364.000 316.712 C 365.463 313.915 367.094 311.188 368.594 308.406 C 370.094 305.624 371.419 302.770 373.000 300.022 C 374.581 297.274 376.268 294.569 378.082 291.918 C 379.896 289.267 381.952 286.715 383.887 284.113 C 385.821 281.512 387.756 278.910 389.691 276.309 C 391.626 273.707 393.443 271.057 395.496 268.504 C 397.549 265.951 399.719 263.448 402.008 260.992 C 404.296 258.537 406.820 256.180 409.226 253.774 C 411.633 251.367 413.990 248.843 416.445 246.555 C 418.900 244.266 421.404 242.096 423.957 240.043 C 426.510 237.990 429.160 236.173 431.762 234.238 C 434.363 232.304 436.916 230.251 439.566 228.434 C 442.217 226.617 444.916 224.918 447.664 223.336 C 450.412 221.755 453.257 220.409 456.054 218.946 C 458.851 217.482 461.648 216.019 464.445 214.555 C 467.241 213.092 469.954 211.424 472.835 210.165 C 475.716 208.906 478.790 208.110 481.733 207.000 C 484.676 205.890 487.575 204.672 490.494 203.506 C 493.414 202.339 496.298 201.084 499.251 200.000 C 502.205 198.916 505.160 197.833 508.218 197.000 C 511.276 196.167 514.471 195.667 517.598 195.000 C 520.725 194.333 523.852 193.667 526.979 193.000 C 530.106 192.333 533.171 191.518 536.359 191.000 C 539.548 190.482 542.844 190.224 546.109 189.891 C 549.374 189.558 552.677 189.315 555.949 189.000 C 559.221 188.685 562.410 188.167 565.744 188.000 C 569.078 187.833 572.550 188.000 575.953 188.000 C 579.356 188.000 582.828 187.833 586.162 188.000 C 589.496 188.167 592.692 188.667 595.956 189.000 C 599.221 189.333 602.555 189.500 605.751 190.000 C 608.947 190.500 611.981 191.391 615.132 192.000 C 618.282 192.609 621.528 192.989 624.655 193.655 C 627.782 194.322 630.852 195.126 633.893 196.000 C 636.934 196.874 639.903 197.921 642.900 198.900 C 645.898 199.880 648.933 200.767 651.877 201.877 C 654.820 202.987 657.714 204.214 660.560 205.560 C 663.406 206.906 666.154 208.487 668.950 209.950 C 671.747 211.414 674.593 212.759 677.341 214.341 C 680.089 215.922 682.739 217.739 685.438 219.438 C 688.137 221.137 690.885 222.719 693.536 224.536 C 696.186 226.353 698.788 228.288 701.340 230.340 C 703.893 232.393 706.348 234.682 708.852 236.852 C 711.356 239.023 713.909 241.075 716.364 243.364 C 718.819 245.652 721.176 248.176 723.583 250.583 C 725.989 252.989 728.399 255.394 730.802 257.802 C 733.204 260.209 735.829 262.525 738.000 265.029 C 740.171 267.533 741.992 270.181 743.825 272.825 C 745.658 275.469 747.301 278.191 749.000 280.891 C 750.699 283.590 752.353 286.307 754.020 289.020 C 755.687 291.733 757.503 294.383 759.000 297.166 C 760.497 299.949 761.667 302.868 763.000 305.718 C 764.333 308.569 765.833 311.351 767.000 314.271 C 768.167 317.190 768.976 320.258 770.000 323.237 C 771.024 326.216 772.144 329.155 773.144 332.144 C 774.144 335.133 775.024 338.171 776.000 341.170 C 776.976 344.168 777.870 347.201 779.000 350.136 C 780.130 353.071 780.869 356.713 782.779 358.779 C 784.690 360.846 787.725 362.501 790.463 362.537 C 793.201 362.574 796.410 360.463 799.207 359.000 C 802.003 357.537 805.111 356.003 807.244 353.756 C 809.376 351.509 811.289 348.559 812.000 345.518 C 812.711 342.477 811.844 338.776 811.511 335.511 C 811.178 332.246 810.419 329.158 810.000 325.928 C 809.581 322.698 809.333 319.398 809.000 316.133 C 808.667 312.868 808.333 309.603 808.000 306.339 C 807.667 303.074 807.245 299.845 807.000 296.544 C 806.755 293.242 806.696 289.864 806.530 286.530 C 806.363 283.196 806.255 279.837 806.000 276.540 C 805.745 273.243 805.333 270.010 805.000 266.745 C 804.667 263.480 804.167 260.284 804.000 256.951 C 803.833 253.617 804.167 250.076 804.000 246.742 C 803.833 243.408 803.167 240.281 803.000 236.947 C 802.833 233.613 803.000 230.141 803.000 226.738 C 803.000 223.335 803.167 219.863 803.000 216.529 C 802.833 213.195 802.167 210.068 802.000 206.734 C 801.833 203.400 802.000 199.928 802.000 196.525 C 802.000 193.122 802.167 189.650 802.000 186.316 C 801.833 182.982 801.601 179.675 801.000 176.521 C 800.399 173.367 800.294 169.479 798.392 167.392 C 796.491 165.306 792.481 163.899 789.589 164.000 C 786.696 164.101 783.716 166.252 781.037 168.000 C 778.357 169.748 776.158 172.653 773.514 174.486 C 770.870 176.319 768.118 177.890 765.175 179.000 C 762.232 180.110 759.050 180.645 755.855 181.145 C 752.659 181.645 749.236 182.118 746.000 182.000 C 742.763 181.882 739.625 180.958 736.438 180.438 C 733.250 179.917 730.041 179.449 726.876 178.876 C 723.710 178.303 720.579 177.646 717.444 177.000 C 714.308 176.354 711.175 175.704 708.063 175.000 C 704.952 174.296 701.833 173.609 698.776 172.776 C 695.718 171.942 692.790 170.796 689.716 170.000 C 686.643 169.204 683.412 168.790 680.336 168.000 C 677.260 167.210 674.319 166.095 671.261 165.261 C 668.203 164.428 665.127 163.639 661.989 163.000 C 658.850 162.361 655.617 161.952 652.430 161.430 C 649.243 160.908 646.034 160.440 642.868 159.868 C 639.702 159.296 636.638 158.478 633.433 158.000 C 630.228 157.522 626.903 157.333 623.638 157.000 C 620.373 156.667 617.108 156.333 613.843 156.000 C 610.578 155.667 607.314 155.333 604.049 155.000 C 600.784 154.667 597.588 154.167 594.254 154.000 C 590.920 153.833 587.448 154.000 584.045 154.000 C 580.642 154.000 577.239 154.000 573.836 154.000 C 570.433 154.000 567.030 154.000 563.627 154.000 C 560.224 154.000 556.821 154.000 553.418 154.000 C 550.015 154.000 546.612 154.000 543.209 154.000 C 539.806 154.000 536.334 153.833 533.000 154.000 Z" fill="#fdf5e5" stroke="none"/>
</svg>
