<?xml version="1.0" encoding="UTF-8" standalone="no"?>
<!-- Created with Inkscape (http://www.inkscape.org/) -->

<svg
   version="1.1"
   id="svg1"
   width="960"
   height="678.22668"
   viewBox="0 0 960 678.22668"
   sodipodi:docname="Vector -03.eps"
   xmlns:inkscape="http://www.inkscape.org/namespaces/inkscape"
   xmlns:sodipodi="http://sodipodi.sourceforge.net/DTD/sodipodi-0.dtd"
   xmlns="http://www.w3.org/2000/svg"
   xmlns:svg="http://www.w3.org/2000/svg">
  <defs
     id="defs1" />
  <sodipodi:namedview
     id="namedview1"
     pagecolor="#ffffff"
     bordercolor="#000000"
     borderopacity="0.25"
     inkscape:showpageshadow="2"
     inkscape:pageopacity="0.0"
     inkscape:pagecheckerboard="0"
     inkscape:deskcolor="#d1d1d1">
    <inkscape:page
       x="0"
       y="0"
       inkscape:label="1"
       id="page1"
       width="960"
       height="678.22668"
       margin="0"
       bleed="0" />
  </sodipodi:namedview>
  <g
     id="g1"
     inkscape:groupmode="layer"
     inkscape:label="1">
    <g
       id="group-R5">
      <path
         id="path2"
         d="M 8121.47,0 H -921.473 V 5086.66 H 8121.47 V 0"
         style="fill:#edd6ee;fill-opacity:1;fill-rule:nonzero;stroke:none"
         transform="matrix(0.13333333,0,0,-0.13333333,0,678.22667)" />
      <path
         id="path3"
         d="m 2286.45,2375.17 c 0,-81.03 -77.3,-135.67 -190.31,-135.67 -82.96,0 -145.18,54.64 -145.18,124.35 0,69.8 62.22,122.51 145.18,122.51 h 190.31 z m -520.22,652.15 v -228.04 l 282.31,1.01 342.33,-0.82 v -29.7 c -28.96,0 -55.18,-11.7 -74.18,-30.7 -16.81,-16.81 -27.87,-39.19 -30.24,-64.14 l -246.87,-0.09 c -194.14,0 -341.14,-133.75 -341.14,-314.74 0,-179.07 147,-316.66 341.14,-316.66 44.68,0 86.34,6.66 124.17,19 61.21,20.01 112.56,55.18 151.02,101.69 v -98.04 h 216.71 v 961.23 h -765.25"
         style="fill:#1b1c42;fill-opacity:1;fill-rule:nonzero;stroke:none"
         transform="matrix(0.13333333,0,0,-0.13333333,0,678.22667)" />
      <path
         id="path4"
         d="M 2970.32,3278.12 H 2725.29 V 2066.14 h 425.41 v 224.29 h -180.38 v 987.69"
         style="fill:#1b1c42;fill-opacity:1;fill-rule:nonzero;stroke:none"
         transform="matrix(0.13333333,0,0,-0.13333333,0,678.22667)" />
      <path
         id="path5"
         d="m 3433.76,2640.99 c 32.07,116.85 128.18,194.15 250.7,194.15 120.6,0 220.46,-77.3 252.53,-194.15 z m 767.09,-96.11 c 0,288.34 -222.38,505.14 -516.39,505.14 -294.09,0 -516.47,-216.8 -516.47,-503.22 0,-286.52 222.38,-503.32 516.47,-503.32 171.4,0 318.31,70.71 412.96,183.82 L 3915.61,2368 c -39.83,-62.31 -125.8,-107.72 -227.4,-107.72 -128.18,0 -226.22,79.12 -258.19,201.64 h 763.33 c 5.67,22.66 7.5,58.47 7.5,82.96"
         style="fill:#1b1c42;fill-opacity:1;fill-rule:nonzero;stroke:none"
         transform="matrix(0.13333333,0,0,-0.13333333,0,678.22667)" />
      <path
         id="path6"
         d="m 5824.99,2640.99 c 32.06,116.85 128.18,194.15 250.7,194.15 120.6,0 220.45,-77.3 252.52,-194.15 z m 767.08,-96.11 c 0,288.34 -222.38,505.14 -516.38,505.14 -294.1,0 -516.48,-216.8 -516.48,-503.22 0,-286.52 222.38,-503.32 516.48,-503.32 171.39,0 318.3,70.71 412.96,183.82 L 6306.84,2368 c -39.84,-62.31 -125.81,-107.72 -227.41,-107.72 -128.18,0 -226.21,79.12 -258.19,201.64 h 763.34 c 5.66,22.66 7.49,58.47 7.49,82.96"
         style="fill:#1b1c42;fill-opacity:1;fill-rule:nonzero;stroke:none"
         transform="matrix(0.13333333,0,0,-0.13333333,0,678.22667)" />
      <path
         id="path7"
         d="m 4544.57,2803.12 v -29.69 c 57.93,0 104.88,-46.96 104.88,-104.89 v -378.15 h 191.68 v -224.3 h -436.71 v 737.03 h -173.41 v 224.29 h 173.41 v 250.7 h 245.03 v -250.7 h 422.65 v -224.29 h -527.53"
         style="fill:#1b1c42;fill-opacity:1;fill-rule:nonzero;stroke:none"
         transform="matrix(0.13333333,0,0,-0.13333333,0,678.22667)" />
      <path
         id="path8"
         d="m 5477.84,2290.39 v -224.3 h -436.71 v 737.03 h -173.41 v 224.29 h 173.41 v 250.7 h 245.03 v -250.7 h 221.59 v -224.29 h -326.47 v -29.69 c 28.96,0 55.18,-11.7 74.18,-30.71 19.01,-18.99 30.7,-45.22 30.7,-74.18 v -378.15 h 191.68"
         style="fill:#1b1c42;fill-opacity:1;fill-rule:nonzero;stroke:none"
         transform="matrix(0.13333333,0,0,-0.13333333,0,678.22667)" />
      <path
         id="path9"
         d="m 5288.63,3027.41 h 95.65 l -95.65,-224.29 z"
         style="fill:#1b1c42;fill-opacity:1;fill-rule:nonzero;stroke:none"
         transform="matrix(0.13333333,0,0,-0.13333333,0,678.22667)" />
      <path
         id="path10"
         d="m 5462.03,2290.39 h 15.81 v -224.3 h -15.81 v 224.3"
         style="fill:#1b1c42;fill-opacity:1;fill-rule:nonzero;stroke:none"
         transform="matrix(0.13333333,0,0,-0.13333333,0,678.22667)" />
      <path
         id="path11"
         d="m 1380.59,2544.1 c -1.1,-136.49 -93.56,-243.02 -225.12,-260.56 -12.52,-1.74 -25.4,-2.56 -38.65,-2.56 -129.918,0 -231.879,85.33 -257.55,205.38 -4.204,19.28 -6.395,39.47 -6.395,60.39 v 121.61 c 0,3.38 -0.457,3.2 -0.73,6.48 -2.379,24.95 -13.43,47.33 -30.243,64.14 -19.004,19.01 -45.226,30.7 -74.187,30.7 v 29.69 h 105.25 l 237.085,0.55 34.9,-0.64 c 135.04,0 249.7,-104.7 255.45,-239.64 0.19,-4.3 0.28,-8.5 0.28,-12.89 0,-0.91 0,-1.73 -0.09,-2.65 z m 252.34,20.01 c -6.4,258.65 -222.01,463.21 -480.84,463.21 H 607.93 V 1808.54 h 244.945 v 383.82 c 49.793,-60.85 113.379,-106.17 188.295,-130.01 28.69,-9.14 59.11,-15.17 91,-17.64 10.96,-0.82 22.2,-1.27 33.62,-1.27 267.6,0 467.41,216.8 467.41,503.31 0,5.85 -0.09,11.61 -0.27,17.36"
         style="fill:#1b1c42;fill-opacity:1;fill-rule:nonzero;stroke:none"
         transform="matrix(0.13333333,0,0,-0.13333333,0,678.22667)" />
    </g>
  </g>
</svg>
